<?xml version="1.0" encoding="UTF-8" standalone="no"?>
<!-- Created with Inkscape (http://www.inkscape.org/) -->

<svg
   width="224.54337mm"
   height="15.80887mm"
   viewBox="0 0 224.54337 15.808871"
   version="1.1"
   id="svg5"
   inkscape:version="1.2.2 (732a01da63, 2022-12-09)"
   sodipodi:docname="text_white_thin.svg"
   xmlns:inkscape="http://www.inkscape.org/namespaces/inkscape"
   xmlns:sodipodi="http://sodipodi.sourceforge.net/DTD/sodipodi-0.dtd"
   xmlns="http://www.w3.org/2000/svg"
   xmlns:svg="http://www.w3.org/2000/svg">
  <sodipodi:namedview
     id="namedview7"
     pagecolor="#505050"
     bordercolor="#eeeeee"
     borderopacity="1"
     inkscape:showpageshadow="0"
     inkscape:pageopacity="0"
     inkscape:pagecheckerboard="0"
     inkscape:deskcolor="#505050"
     inkscape:document-units="mm"
     showgrid="false"
     inkscape:zoom="1.0444209"
     inkscape:cx="342.77368"
     inkscape:cy="121.59848"
     inkscape:window-width="1920"
     inkscape:window-height="1009"
     inkscape:window-x="-8"
     inkscape:window-y="-8"
     inkscape:window-maximized="1"
     inkscape:current-layer="layer1" />
  <defs
     id="defs2" />
  <g
     inkscape:label="Layer 1"
     inkscape:groupmode="layer"
     id="layer1"
     transform="translate(-2.5063919,-2.7684808)">
    <g
       aria-label="CS EXPO 2023
"
       id="text240"
       style="font-size:22.5778px;font-family:'Akira Expanded';-inkscape-font-specification:'Akira Expanded, ';fill:none;stroke-width:0.264583;fill-opacity:1">
      <path
         d="m 16.926276,11.940713 c -0.529167,1.455209 -2.182815,1.807988 -4.167192,1.807988 C 10.39988,13.715628 8.3934548,13.274655 8.4265278,10.86033 V 10.496527 C 8.3934548,8.0601531 10.39988,7.641229 12.759084,7.6081561 c 1.984377,0 3.627,0.3417538 4.167192,1.7969636 h 5.920058 C 22.482532,4.4111042 18.094854,2.9117971 12.759084,2.9007728 7.2028286,2.9228215 2.6167128,4.5323717 2.6387615,10.132725 v 1.080383 c -0.022049,5.611377 4.5640671,7.220927 10.1203225,7.231951 5.33577,0 9.723448,-1.499307 10.08725,-6.504346 z"
         id="path507"
         style="fill:none;fill-opacity:1;stroke:#ffffff;stroke-opacity:1" />
      <path
         d="m 30.188529,8.1483476 c 0,-1.1796019 2.204863,-1.4441855 4.001827,-1.4441855 1.807988,0 3.340368,0.2756079 4.001827,1.4441855 h 6.05235 C 43.693317,3.5181346 39.382809,2.9338458 34.190356,2.9007728 c -5.203478,0 -10.054177,1.0142372 -10.054177,5.2475748 -0.01102,3.7041704 5.798791,3.9908024 9.932909,4.2002644 2.326131,0.110243 4.123095,0.209462 4.123095,0.859897 0,1.146529 -2.204864,1.444186 -4.001827,1.444186 -1.807988,0 -3.340368,-0.297657 -4.001827,-1.444186 h -6.05235 c 0.551216,4.59714 4.861724,5.225526 10.054177,5.23655 5.203477,0 10.054177,-1.003212 10.054177,-5.23655 C 44.255557,9.4933143 38.445742,9.206682 34.311623,8.99722 31.985492,8.8869768 30.188529,8.7987823 30.188529,8.1483476 Z"
         id="path509"
         style="fill:none;fill-opacity:1;stroke:#ffffff;stroke-opacity:1" />
      <path
         d="m 55.709822,18.103306 h 17.34125 v -3.80339 H 61.486564 V 12.403734 H 73.051072 V 8.9751714 H 61.486564 V 7.0789889 h 11.564508 v -3.792365 h -17.34125 z"
         id="path511"
         style="fill:none;fill-opacity:1;stroke:#ffffff;stroke-opacity:1" />
      <path
         d="M 85.29909,7.6081561 81.142922,3.2866239 h -7.231951 l 7.772143,7.4083411 -7.772143,7.408341 h 7.231951 l 4.156168,-4.332557 4.156167,4.332557 h 7.220928 l -7.772144,-7.408341 7.772144,-7.4083411 h -7.220928 z"
         id="path513"
         style="fill:none;fill-opacity:1;stroke:#ffffff;stroke-opacity:1" />
      <path
         d="M 103.2577,10.143749 V 7.6191804 h 7.05556 c 0.34175,0 0.63941,0.1212675 0.88195,0.3748268 0.25355,0.2425349 0.37482,0.5401915 0.37482,0.8929696 0,0.3417539 -0.12127,0.6394104 -0.37482,0.8929697 -0.24254,0.2425345 -0.5402,0.3638025 -0.88195,0.3638025 z M 97.480955,3.2866239 V 18.103306 H 103.2577 V 14.48733 h 8.49975 c 3.05373,0.0441 5.64445,-2.546617 5.60035,-5.6003532 0.0441,-3.06476 -2.54662,-5.6334258 -5.60035,-5.6003529 z"
         id="path515"
         style="fill:none;fill-opacity:1;stroke:#ffffff;stroke-opacity:1" />
      <path
         d="m 128.83411,2.9007728 c -5.5783,0.011024 -10.14237,1.6205746 -10.12032,7.2319522 v 1.080383 c -0.0221,5.600353 4.54202,7.220927 10.12032,7.231951 5.56728,-0.01102 10.13135,-1.631598 10.1093,-7.231951 v -1.080383 c 0,-5.6003533 -4.53099,-7.2319522 -10.1093,-7.2319522 z m 4.33256,7.9485322 c 0.0331,2.42535 -1.97335,2.866323 -4.33256,2.899396 -2.37023,-0.03307 -4.37665,-0.474046 -4.34358,-2.899396 v -0.363802 c -0.0331,-2.4143256 1.97335,-2.8552983 4.34358,-2.8883712 2.35921,0.033073 4.36563,0.4740456 4.33256,2.8883712 z"
         id="path517"
         style="fill:none;fill-opacity:1;stroke:#ffffff;stroke-opacity:1" />
      <path
         d="m 169.20516,7.8506911 c 0,-3.6159759 -3.35139,-4.9499183 -9.05096,-4.9499183 -5.61138,0 -9.51398,0.9591156 -9.51398,5.9531311 h 5.79879 c -0.0331,-1.3780396 1.80798,-1.6977448 3.95773,-1.7197934 2.06154,0 3.00963,0.4630213 3.00963,1.0914073 0,0.7827265 -1.86311,1.2347235 -4.18924,1.8079882 -3.81441,0.903994 -8.80843,2.160766 -8.80843,5.545231 v 2.50252 h 18.55393 v -4.233338 h -9.42579 c 0.44097,-0.540191 1.66467,-0.903994 3.19705,-1.267796 2.84427,-0.694532 6.47127,-1.642623 6.47127,-4.7294319 z"
         id="path519"
         style="fill:none;fill-opacity:1;stroke:#ffffff;stroke-opacity:1" />
      <path
         d="m 182.65483,11.213108 c 0,2.403301 -1.80799,2.899395 -3.61598,2.899395 -0.89297,0 -1.78594,-0.143316 -2.48047,-0.551216 -0.69453,-0.4079 -1.13551,-1.146529 -1.13551,-2.348179 v -1.080383 c 0,-2.3922771 1.83004,-2.8883714 3.61598,-2.8883714 0.91502,0 1.79696,0.1322918 2.49149,0.5401916 0.67249,0.4299483 1.12449,1.1465289 1.12449,2.3481798 z m 0.0551,-7.9485327 c -1.20165,-0.2645836 -2.46945,-0.3638025 -3.6711,-0.3638025 -1.20165,0 -2.46945,0.099219 -3.66007,0.3638025 -0.95912,0.209462 -1.85209,0.5291672 -2.65686,0.9811642 -1.81902,1.0032128 -3.07579,2.7340305 -3.07579,5.5231827 V 11.57691 c 0,4.023876 2.64584,5.831864 5.73265,6.504347 1.19062,0.264584 2.45842,0.363802 3.66007,0.363802 1.20165,0 2.46945,-0.09922 3.6711,-0.363802 0.95911,-0.209462 1.84106,-0.529167 2.65686,-0.97014 1.81901,-1.014237 3.07578,-2.745055 3.07578,-5.534207 V 9.7689222 c 0,-4.0128513 -2.64583,-5.8318636 -5.73264,-6.5043469 z"
         id="path521"
         style="fill:none;fill-opacity:1;stroke:#ffffff;stroke-opacity:1" />
      <path
         d="m 207.68003,7.8506911 c 0,-3.6159759 -3.35139,-4.9499183 -9.05096,-4.9499183 -5.61138,0 -9.51399,0.9591156 -9.51399,5.9531311 h 5.79879 c -0.0331,-1.3780396 1.80799,-1.6977448 3.95773,-1.7197934 2.06155,0 3.00964,0.4630213 3.00964,1.0914073 0,0.7827265 -1.86311,1.2347235 -4.18924,1.8079882 -3.81441,0.903994 -8.80843,2.160766 -8.80843,5.545231 v 2.50252 h 18.55393 v -4.233338 h -9.42579 c 0.44097,-0.540191 1.66467,-0.903994 3.19705,-1.267796 2.84427,-0.694532 6.47127,-1.642623 6.47127,-4.7294319 z"
         id="path523"
         style="fill:none;fill-opacity:1;stroke:#ffffff;stroke-opacity:1" />
      <path
         d="m 226.91746,7.4427913 c 0,-3.097833 -3.35139,-4.5309942 -9.16121,-4.5309942 -5.74367,0 -9.63525,0.9921886 -9.63525,5.9310825 h 5.78777 c -0.0221,-1.5764773 1.81901,-1.5213557 4.07899,-1.5544287 2.0836,-0.011024 3.13091,0.3638025 3.13091,1.1465289 0,0.937067 -0.58429,0.9480913 -5.13733,0.9480913 v 2.5907149 c 4.55304,0 5.13733,-0.01103 5.13733,0.948091 0,0.782726 -0.95912,1.135504 -3.13091,1.135504 -2.25998,-0.03307 -4.10104,0.03307 -4.07899,-1.543404 H 208.121 c 0,4.938894 3.89158,5.931082 9.63525,5.931082 5.80982,0 9.16121,-1.444185 9.16121,-4.530994 0,-1.488282 -0.84887,-2.535593 -2.34818,-3.241149 1.49931,-0.7055561 2.34818,-1.7418419 2.34818,-3.2301247 z"
         id="path525"
         style="fill:none;fill-opacity:1;stroke:#ffffff;stroke-opacity:1" />
    </g>
  </g>
</svg>
